<svg xmlns="http://www.w3.org/2000/svg" width="80" height="82" fill="none" viewBox="0 0 80 82">
    <path fill="#007DF4" d="M46.892 2.87c1.082 0 2.024.575 2.495 1.484.235.43.424.956.424 1.483v1.77h6.026c1.318 0 2.448.813 2.919 2.01.141.382.235.765.235 1.195V13.3c0 5.837-4.52 10.573-10.075 10.573h-.753l-.424.622c-.753 1.1-1.6 2.296-2.636 3.54-2.166 2.68-4.473 5.454-4.473 8.133v4.784h3.672c.518 0 .942.43.942.957 0 .526-.424.957-.942.957h-9.086c-.518 0-.942-.43-.942-.957 0-.526.424-.957.942-.957h3.672v-4.784c0-2.68-2.26-5.454-4.472-8.133-.99-1.244-1.884-2.44-2.637-3.54l-.47-.622h-.754C25 23.873 20.48 19.137 20.48 13.3v-2.488c0-.43.094-.813.235-1.196.471-1.148 1.601-2.01 2.92-2.01h6.025v-1.77c0-.526.142-1.052.424-1.482.518-.91 1.46-1.484 2.495-1.484h14.313zm0-2.87H32.579c-2.024 0-3.907 1.1-4.943 2.87-.33.575-.565 1.197-.706 1.866h-3.296c-2.448 0-4.614 1.483-5.508 3.78-.283.717-.424 1.53-.424 2.296V13.3c0 7.176 5.367 13.013 12.147 13.443.706 1.005 1.506 2.058 2.4 3.158 1.79 2.2 3.814 4.688 3.814 6.315v1.913h-.847c-2.072 0-3.767 1.723-3.767 3.828 0 2.105 1.695 3.827 3.767 3.827h9.086c2.072 0 3.767-1.722 3.767-3.827s-1.695-3.828-3.767-3.828h-.847v-1.913c0-1.627 2.024-4.114 3.813-6.315.895-1.1 1.695-2.153 2.401-3.158 6.78-.43 12.147-6.267 12.147-13.443v-2.488c0-.813-.141-1.579-.424-2.296-.941-2.297-3.107-3.78-5.508-3.78h-3.296c-.14-.67-.376-1.291-.706-1.866C50.8 1.1 48.916 0 46.892 0z"/>
    <path fill="#FFBD00" d="M76.74 41.191l-.8-.095-2.26-.335c-.848-.144-1.6-.67-1.977-1.483l-1.319-2.727c-.988-2.01-3.766-2.01-4.755 0l-1.318 2.774c-.377.814-1.13 1.34-1.977 1.484l-2.966.43c-2.166.335-3.014 3.014-1.46 4.593l2.166 2.153c.612.622.894 1.483.753 2.392l-.518 3.014c-.376 2.2 1.883 3.875 3.814 2.823l2.683-1.436c.754-.43 1.695-.43 2.448 0l2.684 1.436c1.93 1.052 4.19-.622 3.813-2.823l-.517-3.014c-.142-.861.14-1.722.753-2.344l.047-.048L78.2 45.88c1.6-1.627.706-4.354-1.46-4.689zM19.68 35.93l-2.967-.431c-.847-.144-1.6-.67-1.977-1.484l-1.318-2.774c-.989-2.01-3.767-2.01-4.755 0l-1.318 2.727c-.377.813-1.13 1.34-1.978 1.483l-2.26.335-.8.095c-2.166.335-3.06 3.062-1.46 4.593l2.166 2.105.047.048c.612.622.895 1.483.754 2.344l-.518 3.062c-.377 2.2 1.883 3.875 3.813 2.823l2.684-1.436c.753-.43 1.695-.43 2.448 0l2.683 1.436c1.93 1.052 4.19-.622 3.814-2.823l-.518-3.014c-.141-.861.141-1.77.753-2.392l2.166-2.153c1.6-1.53.706-4.21-1.46-4.545z"/>
    <path fill="#D1F2FE" d="M3.06 58.558H1.554V81.76H21.94V58.558H3.06zM75.94 63.916H57.72V82h20.432V63.916H75.94z"/>
    <path fill="#0F68F4" d="M52.682 49.85H26.13v31.91h27.307V49.852h-.754zm-5.838 23.252H32.626v-4.689h4.756v-4.688h-4.756v-4.689h9.464v9.377h4.754v4.689z"/>
    <path fill="#fff" d="M32.627 68.413v4.689h14.218v-4.689H42.09v-9.425h-9.464v4.737h4.756v4.688h-4.755z"/>
</svg>
