<svg xmlns="http://www.w3.org/2000/svg" width="45" height="45" fill="none" viewBox="0 0 45 45">
    <path fill="#F6B900" d="M22.04 25.356c.42 0 .747-.327.747-.747s-.326-.746-.746-.746-.746.327-.746.747.326.746.746.746z"/>
    <path fill="#F6B900" d="M22.04 26.848c1.236 0 2.239-1.003 2.239-2.238 0-1.236-1.003-2.238-2.238-2.238-1.236 0-2.238 1.002-2.238 2.238 0 1.235 1.002 2.238 2.238 2.238zm0-2.984c.42 0 .747.326.747.746s-.327.746-.746.746c-.42 0-.746-.327-.746-.746 0-.397.326-.746.746-.746z"/>
    <path fill="#D7F2FF" d="M15.327 23.957v1.468c-1.655 0-2.984 1.33-2.984 2.961v1.469h5.222v1.469h-5.968c-.42 0-.746-.327-.746-.746v-2.215c0-2.425 2.004-4.406 4.476-4.406z"/>
    <path fill="#D7F2FF" d="M11.597 31.324h5.968v-1.469h-5.222v-1.469c0-1.632 1.329-2.96 2.984-2.96v-1.47c-2.472 0-4.476 1.982-4.476 4.43v2.215c0 .396.326.723.746.723zM31.67 30.6c0 .397-.327.747-.724.747h-5.082v-1.469h4.36v-2.96c0-.816-.653-1.47-1.446-1.47V23.98c1.609 0 2.915 1.329 2.915 2.96v3.66h-.024z"/>
    <path fill="#D7F2FF" d="M28.755 23.957v1.468c.793 0 1.445.653 1.445 1.47v2.96h-4.36v1.469h5.083c.396 0 .723-.327.723-.746v-3.684c.023-1.632-1.282-2.937-2.891-2.937zM10.175 37.595c-1.096 0-2.005.886-2.005 2.005 0 1.096.886 2.005 2.005 2.005 1.096 0 2.005-.886 2.005-2.005 0-1.12-.91-2.005-2.005-2.005zM32.415 41.582c1.107 0 2.005-.898 2.005-2.005 0-1.108-.898-2.005-2.005-2.005-1.107 0-2.005.897-2.005 2.005 0 1.107.898 2.005 2.005 2.005z"/>
    <path fill="#007DF4" d="M42.044 30.182h-7.647v-2.448c0-1.702-.583-3.24-1.562-4.476v1.935c.35.769.56 1.631.56 2.54v2.962c0 .28.232.512.512.512h6.155v4.686c0 .28.233.513.513.513h3.194v4.173h-6.481l.046-.256v-.047c.024-.256.047-.466.047-.653 0-2.727-2.215-4.965-4.966-4.965-2.727 0-4.965 2.215-4.965 4.965 0 .187.023.397.046.653v.07l.047.257H15.047l.047-.257V40.3c.023-.257.046-.467.046-.653 0-2.728-2.215-4.966-4.966-4.966-2.727 0-4.965 2.215-4.965 4.966 0 .186.023.396.046.653v.07l.047.256H1.805v-7.647c0-.956.77-1.725 1.725-1.725h5.176c.28 0 .513-.233.513-.513v-2.96c0-.84.163-1.633.466-2.355V23.42c-.933 1.212-1.492 2.727-1.492 4.36v2.447H3.507c-1.515 0-2.728 1.236-2.728 2.728v8.16c0 .28.233.512.513.512h4.36l.07.14c.816 1.725 2.564 2.821 4.476 2.821 1.888 0 3.66-1.119 4.476-2.82l.07-.14h13.172l.07.14c.816 1.724 2.564 2.82 4.476 2.82 1.888 0 3.66-1.119 4.476-2.82l.07-.14h7.32c.28 0 .513-.234.513-.514v-8.16c-.046-1.561-1.282-2.773-2.797-2.773zm-28 10.118c-.023.093-.046.186-.07.256l-.023.07c-.466 1.702-2.028 2.89-3.777 2.89-1.748 0-3.31-1.188-3.776-2.89l-.024-.07c-.023-.093-.046-.163-.07-.256-.046-.257-.07-.49-.07-.723 0-2.168 1.772-3.94 3.94-3.94 2.169 0 3.94 1.772 3.94 3.94 0 .233-.023.443-.07.723zm22.241 0c-.023.093-.046.186-.07.256l-.023.07c-.466 1.702-2.028 2.89-3.777 2.89-1.748 0-3.31-1.188-3.776-2.89l-.024-.07c-.023-.093-.046-.163-.07-.256-.046-.257-.07-.49-.07-.723 0-2.168 1.772-3.94 3.94-3.94s3.94 1.772 3.94 3.94c0 .233-.023.443-.07.723zm7.484-4.943h-2.681v-4.173h.979c.956 0 1.725.77 1.725 1.725v2.448h-.023z"/>
    <path fill="#007DF4" d="M24.21 28.037c-.327.233-.7.396-1.097.512-.186.047-.326.21-.35.397l-.489 2.401c-.023.117 0 .233.047.326l.63 1.26-.63 1.258c-.07.14-.07.303 0 .467l.56 1.095-1.82 1.352V28.97c0-.21-.14-.396-.349-.49-.303-.116-.606-.256-.863-.442H18.73v.396c.35.326.747.583 1.19.793l.14.07v8.812c0 .186.116.373.28.466.046.023.116.047.186.047h.046c.024 0 .07 0 .117-.024h.046l.14-.07 2.961-2.214c.187-.14.257-.42.14-.63l-.63-1.259.63-1.258c.07-.14.07-.304 0-.467l-.653-1.329.396-1.935.117-.046c.303-.117.583-.257.863-.443v-.91h-.49z"/>
    <path fill="#007DF4" d="M24.675 27.687c-.14.117-.303.256-.443.35h.443v-.35zM18.73 26.871v1.142h1.12c-.443-.28-.817-.676-1.12-1.142zM11.69 22.768h-1.515c-.187.187-.35.373-.513.583v2.005c.443-1.026 1.142-1.912 2.028-2.588z"/>
    <path fill="#007DF4" d="M17.308 23.28c-.07.187-.116.397-.14.654 0 .046-.023.116-.023.163-.046.256-.046.466-.046.676 0 1.422.63 2.75 1.655 3.683v-.42h-.117v-1.328c-.326-.583-.536-1.259-.536-1.958 0-.21.023-.443.07-.7v-.023c0-.047.023-.07.023-.117.047-.233.117-.443.21-.652 0-.024.023-.047.023-.07l.024-.024c.046-.116.116-.233.186-.35v-.023h-1.119c-.07.14-.116.303-.163.443-.023 0-.023 0-.047.047z"/>
    <path fill="#007DF4" d="M18.637 22.768l-.023.023c.023 0 .023 0 .023-.023zM18.637 26.708v1.329h.093V26.87c-.023-.047-.07-.093-.093-.163zM32.835 25.17v-1.936c-.14-.163-.257-.326-.42-.466H30.9c.84.63 1.492 1.445 1.935 2.401zM25.631 23.164l.023.024c0 .023.024.046.024.07.093.21.14.42.21.652 0 .024.023.07.023.093v.047c.046.257.07.49.07.7 0 .699-.187 1.375-.536 1.958v1.305h-.77v.91c1.422-.886 2.332-2.472 2.332-4.197 0-.21-.024-.42-.047-.676 0-.047-.023-.093-.023-.163-.047-.256-.094-.466-.164-.653 0-.023-.023-.023-.023-.046-.047-.14-.116-.303-.163-.443h-1.12v.023c.048.14.117.256.164.396z"/>
    <path fill="#007DF4" d="M25.445 28.037V26.73c-.21.35-.467.676-.77.956v.35h.77zM27.24 20.53h-2.588l-.047-.024c-.56-.326-1.189-.559-1.841-.652l-.187-.024v-2.028l.163-.046c1.213-.303 2.052-1.4 2.052-2.635 0-.35-.07-.7-.21-1.049l-.07-.186.163-.117c.537-.373.863-.98.863-1.655v-3.66c0-.164-.093-.327-.233-.42l-8.16-5.199c-.093-.047-.186-.07-.28-.07H6.981V1.04c0-.28-.234-.513-.513-.513H1.292C1.012.527.78.76.78 1.04v16.296c0 .28.233.513.513.513h5.199c.28 0 .513-.233.513-.513V15.61h12.38l.046.186c.256.956 1.002 1.702 1.958 1.959l.163.046v2.028l-.21.024c-.652.093-1.258.303-1.841.652l-.047.024h-4.08c-2.051 0-3.893.862-5.198 2.238h1.515c1.026-.77 2.308-1.212 3.683-1.212h2.845l-.257.373-.023.023c-.117.163-.21.326-.303.536-.024.047-.047.117-.07.163-.024.047-.024.07-.047.117H18.66c.397-.676 1.003-1.236 1.702-1.562h-.023c.047-.023.07-.023.117-.047.046-.023.116-.046.163-.07.07-.023.14-.046.186-.07l.21-.07c.047-.023.117-.023.163-.046.094-.023.187-.023.28-.047.047 0 .093-.023.14-.023.14-.023.28-.023.42-.023.14 0 .28 0 .42.023.046 0 .093.023.14.023.092.023.186.023.279.047.047.023.116.023.163.046.07.024.163.047.233.07.07.024.117.047.187.07.046.024.116.047.163.07.046.024.07.024.116.047h-.023c.7.35 1.306.886 1.702 1.562h1.143c-.024-.047-.024-.07-.047-.117-.024-.046-.047-.116-.07-.163-.093-.21-.21-.373-.303-.536 0-.023-.024-.023-.024-.047l-.233-.35h1.352c1.376 0 2.658.444 3.684 1.213h1.515c-1.305-1.376-3.147-2.238-5.175-2.238zM5.978 16.823H1.805V1.553h4.173v15.27zm13.848-2.215H7.004V3.768h9.722l7.786 4.965v3.427c0 .537-.443.98-.98.98-.139 0-.256-.047-.325-.07-.024 0-.047-.024-.094-.047-.093-.047-.163-.093-.233-.163l-.07-.07-.023-.023c-.14-.187-.233-.397-.233-.607v-1.492c0-.256-.187-.466-.42-.513L14.068 8.92c-.093-.023-.187-.023-.28-.023-.443 0-.886.163-1.212.442-.42.35-.653.886-.653 1.423 0 1.025.84 1.888 1.888 1.888h6.038c.537 0 .98.443.98.98-.047.535-.467.978-1.003.978zm1.702-3.497v1.4l-.396-.35c-.373-.327-.84-.513-1.33-.513h-6.037c-.466 0-.863-.397-.863-.863 0-.35.187-.56.303-.653.094-.07.28-.21.56-.21h.14l7.623 1.19zm.513 5.712c-.7 0-1.306-.42-1.585-1.05l-.094-.209.21-.093.28-.14c.023 0 .023-.023.047-.023l.023-.024c.07-.046.14-.093.21-.163l.07-.07c.07-.07.14-.163.21-.233l.023-.023c.07-.094.116-.187.163-.28 0-.023.047-.07.047-.07.046-.07.07-.163.093-.233l.023-.093.07-.35.047-.466.35.326.023.023c.023.024.046.024.07.047.046.047.116.093.163.14.023 0 .023.023.046.023.024 0 .047.024.047.024.07.046.14.07.21.116.023 0 .047.023.07.023l.047.024.21.07c.046 0 .093.023.14.023.022 0 .046 0 .07.023h.162l.07.094c.163.256.233.56.233.862-.023.933-.792 1.702-1.748 1.702z"/>
</svg>
