<svg xmlns="http://www.w3.org/2000/svg" viewBox="0 0 436.96 396"><defs><style>.cls-1{fill:#fff;}.cls-2{fill:#008ff3;}.cls-3,.cls-5{fill:#ffbd00;}.cls-4{fill:#def5ff;}.cls-5{stroke:#ffbd00;stroke-miterlimit:10;stroke-width:0.62px;}</style></defs><g id="Capa_2" data-name="Capa 2"><g id="Capa_1-2" data-name="Capa 1"><circle class="cls-1" cx="218.48" cy="198" r="190.5"/><path class="cls-2" d="M218.48,15a183,183,0,0,1,129.4,312.4A183,183,0,1,1,89.08,68.6,181.83,181.83,0,0,1,218.48,15m0-15c-109.35,0-198,88.65-198,198s88.65,198,198,198,198-88.65,198-198S327.83,0,218.48,0Z"/><path class="cls-2" d="M83.46,262.31l.07,0c7.12-4.28,16.07-2,20.62,5.54a16.65,16.65,0,0,1,2.4,12.06l-7.18-1.11a10,10,0,0,0-1.24-7.29C96,267.94,91.4,267,87.67,269.25l-.07,0A7.53,7.53,0,0,0,84.81,280a8,8,0,0,0,3.36,3.3l3-1.78-2.9-4.82,5-3L100,285l-11,6.61a19.32,19.32,0,0,1-10.16-8.36C74.23,275.6,76.05,266.76,83.46,262.31Z"/><path class="cls-2" d="M118.39,287.57l5.24,5.53-12.47,28.59-5.83-6.15,2.26-5-7.58-8-5.09,2-5.73-6Zm-7.91,17.06,3.69-7.88L106.08,300Z"/><path class="cls-2" d="M132.59,302.15l11.13,7.63c3.6,2.46,5.44,5.11,5.92,7.8a8.83,8.83,0,0,1-1.67,6.91l-.05.07a9,9,0,0,1-9.79,3.91v12l-7.53-5.16.14-10.37-2.86-2L123,330.16l-6.53-4.47Zm3.09,18.71c2.22,1.53,4.24,1.32,5.41-.39l0-.07c1.26-1.85.56-3.71-1.62-5.21l-4.27-2.92-3.87,5.65Z"/><path class="cls-2" d="M163.8,320.72l7,2.92.24,31.19-7.84-3.24,0-5.51-10.17-4.2-3.83,3.92-7.68-3.18Zm-.28,18.81.16-8.71-6.08,6.26Z"/><path class="cls-2" d="M182.56,328.34l7.27,1.24,9,16.84,2.53-14.87,7.72,1.32L204.32,361l-6.83-1.17-9.38-17.48-2.63,15.43-7.72-1.31Z"/><path class="cls-2" d="M221.6,339.42l-8.55.37-.3-6.92,25-1.08.3,6.92-8.55.37.94,21.58-7.9.34Z"/><path class="cls-2" d="M241.3,330.61l7.79-1.58,5.65,28L247,358.57Z"/><path class="cls-2" d="M259.64,350.33l8-20-13,4.66-2.26-6.29,23.28-8.36,1.94,5.41-8,20,13.46-4.84,2.26,6.3-23.74,8.52Z"/><path class="cls-2" d="M285.77,314.23l6.47-4,25.48,18-7.2,4.47-4.46-3.24-9.35,5.81,1,5.4-7.07,4.39Zm15.11,11.2-7-5.21,1.54,8.59Z"/><path class="cls-2" d="M302.91,303.39l7.88-7.69c7.29-7.12,15.61-7,21.36-1.15l.06.05c5.75,5.89,5.73,14.45-1.61,21.62l-7.76,7.58Zm23,7.62c3.39-3.3,3.81-7.36.59-10.65l-.06-.06c-3.18-3.27-7.28-3-10.66.33l-2.3,2.25,10.13,10.38Z"/><path class="cls-2" d="M335,291.69l-.06,0c-6.88-4.46-8.86-13.61-4.07-21s13.84-9.28,20.71-4.83l.07.05c6.87,4.45,8.85,13.6,4.07,21S341.87,296.15,335,291.69Zm12.33-19-.07,0a7.41,7.41,0,0,0-10.45,2c-2.35,3.63-1,8,2.47,10.2l.07,0a7.4,7.4,0,0,0,10.43-1.93C352.14,279.25,350.77,274.92,347.32,272.68Z"/><path class="cls-3" d="M429.71,243H7.25A7.26,7.26,0,0,1,0,235.75V130H430.47a6.49,6.49,0,0,1,6.49,6.5v99.25A7.25,7.25,0,0,1,429.71,243Z"/><path class="cls-1" d="M49.84,153.31H76.45c15.71,0,25.82,8.08,25.82,21.83v.17c0,14.64-11.27,22.36-26.7,22.36H67.05v17.74H49.84Zm25.37,30.88c6.12,0,9.85-3.2,9.85-8.08v-.18c0-5.32-3.73-8.16-9.94-8.16H67.05v16.42Z"/><path class="cls-1" d="M109.54,153.31h29.37c9.49,0,16.06,2.49,20.23,6.74,3.63,3.55,5.5,8.34,5.5,14.47v.17c0,9.5-5.06,15.79-12.78,19.08l14.82,21.64H146.81L134.3,196.6h-7.54v18.81H109.54Zm28.57,29.81c5.86,0,9.23-2.84,9.23-7.36v-.18c0-4.88-3.55-7.36-9.32-7.36H126.76v14.9Z"/><path class="cls-1" d="M173.33,153.31h49.95V168H190.36v9.4h29.81v13.58H190.36v9.84h33.36v14.64H173.33Z"/><path class="cls-1" d="M229.93,184.54v-.18c0-18.1,13.93-32.29,32.74-32.29,12.68,0,20.84,5.32,26.34,13l-12.95,10c-3.55-4.44-7.63-7.28-13.57-7.28-8.7,0-14.82,7.37-14.82,16.42v.17c0,9.32,6.12,16.59,14.82,16.59,6.47,0,10.29-3,14-7.54l12.95,9.23c-5.86,8.07-13.75,14-27.5,14C244.21,216.65,229.93,203.08,229.93,184.54Z"/><path class="cls-1" d="M297.18,153.31h17.29v62.1H297.18Z"/><path class="cls-1" d="M323.7,184.54v-.18c0-17.83,14.37-32.29,33.54-32.29s33.35,14.28,33.35,32.12v.17c0,17.83-14.37,32.29-33.53,32.29S323.7,202.37,323.7,184.54Zm49.33,0v-.18c0-9-6.48-16.76-16-16.76s-15.7,7.63-15.7,16.59v.17c0,9,6.47,16.77,15.88,16.77S373,193.5,373,184.54Z"/><path class="cls-2" d="M144,88h8.35l6.81,11L166,88h8.35v28.53h-7.86V100.09l-7.3,11.17H159l-7.26-11.09v16.31H144Z"/><path class="cls-2" d="M179.36,88h22.95v6.72H187.19V99h13.69v6.24H187.19v4.52h15.32v6.73H179.36Z"/><path class="cls-2" d="M204.18,112.16l5.1-4.81C210.66,109,212,110,213.72,110c2,0,3.26-1.35,3.26-4V88h7.87V106c0,3.59-.9,6.12-2.82,8a10.71,10.71,0,0,1-7.82,2.9C209.24,117,206.18,114.89,204.18,112.16Z"/><path class="cls-2" d="M228.55,102.29v-.08c0-8.19,6.6-14.83,15.41-14.83s15.32,6.56,15.32,14.75v.08c0,8.19-6.6,14.84-15.4,14.84S228.55,110.48,228.55,102.29Zm22.66,0v-.08a7.41,7.41,0,0,0-7.33-7.7c-4.32,0-7.22,3.5-7.22,7.62v.08a7.41,7.41,0,0,0,7.3,7.7C248.32,109.91,251.21,106.41,251.21,102.29Z"/><path class="cls-2" d="M263.4,88h13.49c4.36,0,7.37,1.14,9.29,3.09a8.87,8.87,0,0,1,2.53,6.65v.08a9,9,0,0,1-5.87,8.76l6.8,10h-9.13l-5.74-8.64H271.3v8.64h-7.9Zm13.12,13.69c2.69,0,4.24-1.3,4.24-3.38v-.08c0-2.24-1.63-3.39-4.28-3.39H271.3v6.85Z"/><rect class="cls-4" x="303.71" y="99.98" width="59.75" height="8.25" rx="4.12"/><rect class="cls-4" x="71.46" y="99.98" width="59.75" height="8.25" rx="4.12"/><path class="cls-4" d="M265.15,55l-5.64-11.43L253.87,55l-12.61,1.83,9.13,8.9-2.16,12.56,11.28-5.93,11.28,5.93-2.16-12.56,9.33-8.9Z"/><path class="cls-4" d="M177.59,55,172,43.59,166.32,55,153.5,56.85l9.33,8.9-2.16,12.56L172,72.38l11.27,5.93-2.15-12.56,9.12-8.9Z"/><path class="cls-5" d="M222.77,42l-7.21-14.61L208.34,42,192,44.37l11.94,11.37-2.77,16.07,14.44-7.58L230,71.81l-2.75-16.07,11.66-11.37Z"/><path class="cls-1" d="M208.36,306.35v-1.42h9.41V294.32c0-5.73-4.78-11.42-9.41-16.93-2-2.43-3.83-4.76-5.33-6.95l-1.19-1.75h-2.11a19.73,19.73,0,0,1-19.61-19.85V238.72H199v-9.41H238v9.41h18.82v10.12a19.71,19.71,0,0,1-19.53,19.85H235.2l-1.27,1.74a85.88,85.88,0,0,1-5.32,6.95c-4.64,5.52-9.42,11.21-9.42,16.94v10.61h9.41v1.42Zm-26.83-57.51a18.5,18.5,0,0,0,12.65,17.52l6.27,2-1.11-6.48a20.23,20.23,0,0,1-.39-3.31V240.14H181.53ZM238,258.57a20.62,20.62,0,0,1-.38,3.22l-1.1,6.48,6.24-1.91a18.49,18.49,0,0,0,12.65-17.52v-8.7H238Z"/><path class="cls-2" d="M234,233.31v25.26a16.73,16.73,0,0,1-.33,2.56v.08l-.59,3.48H233l-2.38,3.49c-1.42,2.08-3.13,4.31-5.09,6.64a77.62,77.62,0,0,0-7.06,9.28,77.9,77.9,0,0,0-7.07-9.3,82.38,82.38,0,0,1-5.07-6.62L204,264.69h-.07l-.59-3.48,0-.09a17.75,17.75,0,0,1-.32-2.55V233.31H234m8-8H195v9.41H176.12v14.12a23.83,23.83,0,0,0,23.53,23.85h.08a89.11,89.11,0,0,0,5.56,7.26c4.17,5,8.49,10.09,8.49,14.37v6.61h-9.42v9.42H232.6v-9.42h-9.41v-6.61c0-4.28,4.31-9.41,8.48-14.37,2-2.36,3.88-4.79,5.57-7.26h.07a23.83,23.83,0,0,0,23.53-23.85V234.72H242v-9.41Zm-.45,37.24a23.89,23.89,0,0,0,.45-4V244.14h9.41v4.7a14.49,14.49,0,0,1-9.86,13.71Zm-46.17,0a14.49,14.49,0,0,1-9.87-13.71v-4.7H195v14.43a23.89,23.89,0,0,0,.45,4Z"/><circle class="cls-4" cx="280.46" cy="274.48" r="9.54"/><circle class="cls-4" cx="158.02" cy="274.48" r="9.54"/><rect class="cls-5" x="213.2" y="238.85" width="10.56" height="10.56" transform="translate(-108.64 226) rotate(-45)"/></g></g></svg>