<svg xmlns="http://www.w3.org/2000/svg" width="119" height="92" fill="none" viewBox="0 0 119 92">
    <path fill="#20A1FD" d="M46.839 42.553c-1.322 0-2.379 1.039-2.379 2.337 0 1.299 1.057 2.337 2.379 2.337s2.379-1.038 2.379-2.337c0-1.298-1.058-2.337-2.38-2.337z"/>
    <path fill="#D7F2FF" d="M105.995 85.3H13.587c-3.595 0-6.556-2.857-6.556-6.44 0-3.533 2.908-6.442 6.556-6.442h92.408c3.595 0 6.556 2.857 6.556 6.441 0 3.584-2.961 6.44-6.556 6.44z"/>
    <path fill="#fff" d="M64.342 10.704c1.106-2.624-.162-5.632-2.832-6.719-2.67-1.087-5.732.16-6.839 2.783-1.106 2.624.162 5.632 2.833 6.719 2.67 1.087 5.732-.16 6.838-2.783z"/>
    <path fill="#20A1FD" d="M105.518 65.614H25.321V36.32c3.014-1.403 5.234-4.26 5.763-7.584l25.428-12.88c.899.363 1.903.57 2.96.57.793 0 1.586-.103 2.326-.363l5.076 2.649-.635-6.181c.688-1.143 1.057-2.441 1.057-3.844 0-4.259-3.541-7.739-7.876-7.739-3.701 0-6.82 2.545-7.613 5.973L27.489 19.283c-1.797-1.454-4.124-2.337-6.608-2.337-5.71 0-10.362 4.57-10.362 10.18 0 3.532 1.85 6.7 4.652 8.519v29.97H13.48c-7.402 0-13.428 5.92-13.428 13.192S6.078 92 13.48 92h92.091c7.401 0 13.428-5.921 13.428-13.193 0-7.271-6.027-13.193-13.481-13.193zM59.472 3.597c2.855 0 5.234 2.286 5.234 5.142 0 2.857-2.326 5.143-5.234 5.143-2.854 0-5.233-2.286-5.233-5.143 0-2.856 2.379-5.142 5.233-5.142zM17.814 65.095V36.89c.952.312 2.01.468 3.067.468.634 0 1.216-.052 1.85-.156v27.892h-4.917zm33.94-55.161c.264 1.662 1.057 3.168 2.22 4.26L31.137 25.775c-.212-1.662-.846-3.22-1.798-4.519L51.754 9.934zM13.11 27.126c0-4.207 3.489-7.583 7.718-7.583 1.48 0 2.802.416 4.018 1.09.793.468 1.533 1.091 2.114 1.87 1.005 1.247 1.586 2.857 1.64 4.571v.052c0 1.143-.265 2.234-.741 3.22-.582 1.195-1.427 2.182-2.538 2.961-.793.572-1.691.935-2.643 1.195-.581.156-1.216.208-1.85.208-1.11 0-2.115-.208-3.066-.624-1.005-.415-1.904-1.09-2.644-1.87-1.216-1.298-2.008-3.116-2.008-5.09zm92.408 62.277H13.427c-5.974 0-10.785-4.778-10.785-10.596 0-5.817 4.864-10.596 10.785-10.596h92.091c5.974 0 10.785 4.779 10.785 10.596 0 5.818-4.811 10.596-10.785 10.596z"/>
    <path fill="#FAAE00" d="M59.473 5.156c-2.008 0-3.647 1.61-3.647 3.583 0 1.974 1.639 3.584 3.647 3.584 2.01 0 3.648-1.61 3.648-3.584 0-1.973-1.639-3.583-3.648-3.583zM105.308 82.599c2.131 0 3.859-1.698 3.859-3.792s-1.728-3.791-3.859-3.791c-2.131 0-3.859 1.697-3.859 3.791s1.728 3.792 3.859 3.792z"/>
    <path fill="#FAAE00" d="M105.308 82.859c-2.273 0-4.123-1.818-4.123-4.052 0-2.233 1.85-4.051 4.123-4.051s4.124 1.818 4.124 4.051c0 2.234-1.851 4.052-4.124 4.052zm0-7.584c-1.956 0-3.595 1.61-3.595 3.532s1.639 3.532 3.595 3.532c1.956 0 3.595-1.61 3.595-3.532s-1.586-3.532-3.595-3.532zM82.259 82.599c2.131 0 3.859-1.698 3.859-3.792s-1.728-3.791-3.86-3.791c-2.13 0-3.859 1.697-3.859 3.791s1.728 3.792 3.86 3.792z"/>
    <path fill="#FAAE00" d="M82.259 82.859c-2.273 0-4.124-1.818-4.124-4.052 0-2.233 1.85-4.051 4.124-4.051 2.273 0 4.123 1.818 4.123 4.051 0 2.234-1.85 4.052-4.123 4.052zm0-7.584c-1.956 0-3.595 1.61-3.595 3.532s1.639 3.532 3.595 3.532c1.956 0 3.595-1.61 3.595-3.532s-1.586-3.532-3.595-3.532zM59.21 82.599c2.13 0 3.858-1.698 3.858-3.792s-1.727-3.791-3.859-3.791c-2.131 0-3.859 1.697-3.859 3.791s1.728 3.792 3.86 3.792z"/>
    <path fill="#FAAE00" d="M59.21 82.859c-2.274 0-4.124-1.818-4.124-4.052 0-2.233 1.85-4.051 4.123-4.051 2.274 0 4.124 1.818 4.124 4.051 0 2.234-1.85 4.052-4.124 4.052zm0-7.584c-2.01 0-3.595 1.61-3.595 3.532s1.638 3.532 3.594 3.532 3.595-1.61 3.595-3.532-1.586-3.532-3.595-3.532zM36.16 82.599c2.131 0 3.86-1.698 3.86-3.792s-1.729-3.791-3.86-3.791-3.86 1.697-3.86 3.791S34.03 82.6 36.16 82.6z"/>
    <path fill="#FAAE00" d="M36.16 82.859c-2.273 0-4.123-1.818-4.123-4.052 0-2.233 1.85-4.051 4.123-4.051s4.124 1.818 4.124 4.051c0 2.234-1.85 4.052-4.124 4.052zm0-7.584c-2.009 0-3.595 1.61-3.595 3.532s1.64 3.532 3.595 3.532c1.956 0 3.595-1.61 3.595-3.532s-1.586-3.532-3.595-3.532zM13.11 82.599c2.132 0 3.86-1.698 3.86-3.792s-1.728-3.791-3.86-3.791c-2.13 0-3.859 1.697-3.859 3.791s1.728 3.792 3.86 3.792z"/>
    <path fill="#FAAE00" d="M13.11 82.859c-2.272 0-4.123-1.818-4.123-4.052 0-2.233 1.85-4.051 4.124-4.051 2.273 0 4.123 1.818 4.123 4.051 0 2.234-1.85 4.052-4.123 4.052zm0-7.584c-1.955 0-3.594 1.61-3.594 3.532s1.639 3.532 3.595 3.532c2.009 0 3.595-1.61 3.595-3.532s-1.586-3.532-3.595-3.532z"/>
    <path fill="#20A1FD" d="M90.981 18.556l-2.537 4.727c-.318.623-.106 1.402.581 1.766.634.311 1.427.104 1.797-.572l2.538-4.726c.317-.624.106-1.403-.582-1.766-.634-.312-1.427-.104-1.797.571zM85.43 20.997l-1.533 2.857c-.317.623-.106 1.402.582 1.766.634.312 1.427.104 1.797-.571l1.533-2.857c.317-.623.106-1.402-.581-1.766-.635-.312-1.48-.052-1.798.571z"/>
    <path fill="#007DF4" d="M111.652 30.814l-12.847-6.596c.688-2.13.74-4.52 0-6.857-1.903-5.973-8.458-9.349-14.537-7.48-6.08 1.87-9.516 8.311-7.613 14.285.264.779.582 1.454.951 2.13H65.448c-2.485 0-4.864 1.09-6.503 2.908l-7.242 8.258h-6.926c-1.744 0-3.383.831-4.44 2.182-.16.208-.265.416-.37.623l-4.653 9.817c-2.432 3.636.265 8.466 4.652 8.466h9.992c1.004 3.584 4.388 6.233 8.353 6.233s7.348-2.649 8.352-6.233h14.01c1.004 3.584 4.388 6.233 8.352 6.233 3.965 0 7.349-2.649 8.353-6.233h1.745c3.647 0 6.502-3.012 6.238-6.544l-.582-8.726c-.211-3.273-2.96-5.818-6.343-5.818h-2.432l-4.23-6.025c2.38-.883 4.335-2.44 5.604-4.363l12.741 6.545c.264.104.476.208.74.208.581 0 1.163-.312 1.427-.883.476-.78.159-1.766-.634-2.13zm-50.698.104c1.11-1.299 2.749-2.026 4.494-2.026h7.77v8.57H55.193l5.762-6.544zM63.86 58.55c-.898 2.13-3.066 3.636-5.55 3.636-2.485 0-4.653-1.506-5.551-3.636-.317-.675-.476-1.454-.476-2.285v-.312c.159-3.116 2.802-5.557 6.027-5.557 3.224 0 5.815 2.493 6.026 5.557v.312c-.053.831-.211 1.61-.476 2.285zm30.663 0c-.9 2.13-3.067 3.636-5.551 3.636-2.485 0-4.653-1.506-5.551-3.636-.317-.675-.476-1.454-.476-2.285v-.312c.159-3.116 2.802-5.557 6.027-5.557 3.224 0 5.815 2.493 6.026 5.557v.312c0 .831-.158 1.61-.475 2.285zm3.859-18.49c1.956 0 3.542 1.506 3.7 3.376l.582 8.726c.053.986-.265 1.921-.952 2.649-.687.727-1.639 1.142-2.643 1.142h-1.427c-.16-4.519-3.965-8.154-8.67-8.154s-8.459 3.636-8.67 8.154H66.928c-.159-4.519-3.965-8.154-8.67-8.154s-8.459 3.636-8.67 8.154h-9.622c-1.11 0-2.061-.571-2.537-1.506-.529-.935-.476-2.026.106-2.909l.105-.155.106-.156 4.6-9.765c.052-.156.105-.208.105-.208.529-.727 1.427-1.143 2.326-1.143h53.606v-.051zm-5.604-2.598H75.862v-8.57h3.753c2.168 2.078 5.076 3.272 8.142 3.272.423 0 .846-.052 1.268-.052l3.754 5.35zm-2.326-8.31c-4.705 1.454-9.727-1.143-11.208-5.765-1.48-4.623 1.163-9.558 5.868-11.012.9-.26 1.798-.415 2.697-.415 3.806 0 7.348 2.389 8.564 6.18 1.427 4.623-1.216 9.558-5.921 11.012z"/>
    <path fill="#DFF2FF" d="M20.829 32.112c2.803 0 5.075-2.232 5.075-4.986 0-2.754-2.272-4.986-5.075-4.986-2.803 0-5.075 2.232-5.075 4.986 0 2.754 2.272 4.986 5.075 4.986zM20.247 39.384h-2.432v25.659h2.432V39.384zM30.503 23.387l17.446-8.882-1.11-2.078-17.499 8.83c.476.675.846 1.35 1.163 2.13zM58.31 60.732c2.395 0 4.335-1.907 4.335-4.26 0-2.352-1.94-4.258-4.334-4.258-2.395 0-4.335 1.907-4.335 4.259 0 2.352 1.94 4.259 4.335 4.259zM88.972 60.732c2.394 0 4.335-1.907 4.335-4.26 0-2.352-1.94-4.258-4.335-4.258-2.394 0-4.335 1.907-4.335 4.259 0 2.352 1.941 4.259 4.335 4.259z"/>
</svg>
