<svg xmlns="http://www.w3.org/2000/svg" width="53" height="37" fill="none" viewBox="0 0 53 37">
    <path fill="#007DF4" d="M48.154 36.438h-1.39c-1.25 0-2.262-1.062-2.262-2.382v-1.911h-8.623l-8.622-.07v1.957c0 1.32-1.014 2.382-2.262 2.382h-1.39c-1.414 0-2.592-1.085-2.78-2.547 0-.024 0-.047-.024-.094v-.095l-.235-2.618c-.919-1.769-1.414-3.774-1.414-5.755 0-1.274.189-2.548.59-3.774v-.024l.023-.047v-.023c.047-.118.094-.213.165-.33-.377-.307-.66-.732-.754-1.227-.189-1.132.636-2.217 1.814-2.453.612-.118 1.225 0 1.72.354.424.306.73.754.824 1.25.118-1.274.424-2.524.896-3.703.023-.048.047-.095.07-.118.283-.567.707-1.015 1.225-1.274.047-.024.07-.047.118-.07 1.814-.732 5.183-1.11 10.036-1.11s8.222.378 10.013 1.11l.141.07c.518.283.943.731 1.225 1.274.024.047.047.07.07.118.472 1.203.755 2.429.896 3.703.094-.52.377-.967.825-1.25.47-.33 1.107-.472 1.72-.354 1.201.236 2.002 1.32 1.837 2.453-.094.495-.353.943-.754 1.226.047.095.118.213.165.33v.048l.024.047c.377 1.226.589 2.5.589 3.774 0 1.981-.471 3.986-1.414 5.755l-.235 2.642v.094c0 .024 0 .047-.024.07-.212 1.487-1.413 2.572-2.803 2.572zm-3.393-5.472c.518 0 .942.424.942.943v2.147c0 .66.471 1.203 1.084 1.203h1.39c.825 0 1.531-.684 1.626-1.604v-.048l.259-2.76c0-.07.023-.164.07-.235l.024-.024c.848-1.627 1.32-3.443 1.296-5.26 0-1.155-.165-2.311-.518-3.42-.095-.212-.212-.4-.354-.566-.118-.118-.188-.283-.188-.448.023-.26.188-.472.424-.542.33-.095.565-.33.612-.66.07-.496-.306-.968-.895-1.086-.306-.047-.589 0-.825.165-.117.095-.282.26-.33.52v.07c-.023.33-.188.66-.447.85-.26.188-.589.282-.895.235h-.024c-.518-.094-.895-.519-.942-1.038-.094-1.18-.354-2.335-.754-3.444 0-.023-.024-.023-.024-.047-.188-.472-.518-.825-.942-.99h-.024c-1.201-.449-3.816-.967-9.447-.967-5.63 0-8.245.518-9.447.967h-.024c-.424.165-.754.518-.942.99 0 .024 0 .024-.024.047-.424 1.109-.66 2.265-.753 3.444-.047.519-.424.944-.943 1.038l-.094-.59.094.59c-.306.047-.636-.024-.895-.236-.26-.212-.424-.519-.448-.85v-.07c-.047-.26-.212-.424-.33-.519-.235-.165-.518-.212-.824-.165-.565.118-.966.59-.895 1.085.047.307.306.566.612.66.26.071.424.284.448.543 0 .189-.07.378-.212.495-.118.142-.236.33-.306.496v.023c-.354 1.109-.519 2.265-.519 3.42 0 1.84.448 3.656 1.296 5.284l.024.024c.047.07.07.141.07.235l.26 2.76v.047c.094.92.8 1.604 1.625 1.604h1.39c.589 0 1.084-.542 1.084-1.203v-2.217c0-.26.094-.495.282-.66.189-.166.4-.284.66-.26l8.858.07h8.835v-.046zm6.69-9.294l-.494.19.141-.048.354-.142zM23.535 19.29l.118.566-.094-.566h-.024c.024 0 0 0 0 0z"/>
    <path fill="#FFBD00" fill-rule="evenodd" d="M31.78 2.284c-.212-.377-.542-.684-.942-.873-1.602-.802-3.228-.377-4.1.637-.117.142-.353.142-.47 0-.896-1.014-2.498-1.462-4.1-.637-.4.213-.73.52-.942.873-.848 1.439-.424 2.901.612 3.727l4.382 4.057c.071.07.189.118.283.118.118 0 .212-.047.283-.118l4.382-4.057c1.036-.826 1.46-2.288.612-3.727z" clip-rule="evenodd"/>
    <path fill="#007DF4" fill-rule="evenodd" d="M11.001 32.852H5.253c-.165 0-.307-.141-.33-.306L3.863 16.2c-.024-.33.259-.613.589-.637.353-.023.636.236.66.566l.753 15.214c0 .165.377.306.566.306h3.321c.165 0 .307-.141.33-.306l.73-15.214c0-.33.307-.59.637-.59.353 0 .612.284.612.614l-.777 16.37c.023.211-.118.33-.283.33z" clip-rule="evenodd"/>
    <path fill="#007DF4" d="M10.853 20.288H4.944l.774 11.998 4.741-.181.394-11.817zM4.38 11.247c-2.072 0-3.769 1.65-3.769 3.656v4.057c0 1.887 1.508 3.443 3.416 3.632.189.024.354-.141.354-.33v-.543c0-.165-.118-.306-.283-.306-1.272-.142-2.238-1.18-2.238-2.43v-4.08c0-1.345 1.13-2.453 2.52-2.453.33 0 .613-.26.613-.59 0-.354-.282-.613-.612-.613z"/>
    <path fill="#fff" fill-rule="evenodd" d="M8.033 35.022c-.307 0-.542-.283-.542-.613V23.465c0-.33.235-.613.542-.613.306 0 .541.283.541.613v10.944c0 .33-.235.613-.541.613z" clip-rule="evenodd"/>
    <path fill="#007DF4" d="M7.797 11.011c-1.79 0-3.275-1.462-3.275-3.279 0-1.816 1.46-3.278 3.275-3.278 1.814 0 3.274 1.486 3.274 3.302s-1.484 3.255-3.274 3.255zm0-5.354C6.642 5.657 5.7 6.6 5.7 7.756c0 1.156.942 2.1 2.097 2.1 1.154 0 2.096-.944 2.096-2.1 0-1.156-.942-2.1-2.096-2.1zM17.15 22.758h-.566c-1.46 0-2.638-1.18-2.638-2.642v-5c0-1.581-1.296-2.878-2.874-2.878h-.047c-.33 0-.59-.26-.59-.59 0-.33.26-.59.59-.59h.047c2.238 0 4.052 1.816 4.052 4.057v5c0 .803.66 1.463 1.46 1.463h.566c.33 0 .589.26.589.59 0 .33-.26.59-.59.59zM12.674 35.777h-9.33v-1.25c0-1.486 1.202-2.689 2.686-2.689h3.958c1.484 0 2.686 1.203 2.686 2.69v1.25zm-8.152-1.179h6.997v-.07c0-.826-.683-1.51-1.508-1.51H6.03c-.825 0-1.508.684-1.508 1.51v.07zM7.82 14.502c-.636 0-1.272-.26-1.696-.755l-.518-.566c-.212-.236-.212-.613.023-.825.236-.213.613-.213.825.023l.518.566c.236.236.542.378.872.378.33 0 .636-.142.848-.401l.424-.496c.212-.236.59-.283.825-.07.235.212.282.59.07.825l-.424.496c-.424.495-1.06.801-1.72.825H7.82z"/>
    <path fill="#FFBD00" d="M24.877 26.555c-1.413-.024-2.544-1.132-2.52-2.5.023-1.368 1.154-2.477 2.567-2.453 1.39.023 2.521 1.132 2.521 2.476-.023 1.392-1.178 2.5-2.568 2.477zM47.164 26.555c-1.413-.024-2.544-1.132-2.52-2.5.023-1.368 1.154-2.477 2.567-2.453 1.39.023 2.521 1.132 2.521 2.476-.023 1.392-1.178 2.5-2.568 2.477z"/>
    <path fill="#007DF4" d="M35.973 29.456c-3.934 0-6.22-1.675-7.256-2.665-.306-.307-.424-.755-.259-1.156.189-.448.613-.731 1.13-.731h12.817c.518 0 .966.283 1.13.731.166.401.048.85-.258 1.156-1.037 1.014-3.37 2.665-7.304 2.665zm-5.583-3.09c1.06.802 2.874 1.698 5.607 1.698s4.57-.896 5.654-1.698H30.39zm11.944-.566l.495.519-.495-.519z"/>
    <path fill="#D7F2FF" d="M26.079 16.342s.73-1.038 1.955-1.085c0 0 4.076-.472 8.081-.472h.024c3.981 0 6.573.141 8.387.66.023 0 .023 0 .047.024.165.07 1.272.59 1.508 1.486 0 0 .494 1.25.518 2.217 0 .212-.165.377-.377.354-2.285-.236-5.607-.401-10.083-.401-4.453 0-8.081.07-10.39.283-.212.023-.377-.142-.377-.354.07-1.65.707-2.712.707-2.712z"/>
</svg>
