<svg width="111" height="110" viewBox="0 0 111 110" fill="none" xmlns="http://www.w3.org/2000/svg">
<path d="M95.8413 76.2762H101.631" stroke="#FFBD00" stroke-width="2" stroke-miterlimit="10" stroke-linecap="square"/>
<path d="M65.4463 43.3052H68.5871C69.3896 43.3101 70.177 43.5235 70.8722 43.9244C71.5675 44.3253 72.1466 44.8999 72.5528 45.592L80.5423 58.9078H30.2607L35.0515 51.671" stroke="#0079F8" stroke-width="2" stroke-miterlimit="10"/>
<path d="M64.4759 84.9604H42.0127" stroke="#0079F8" stroke-width="2" stroke-miterlimit="10"/>
<path d="M22.4304 84.975H11.8935C10.9597 84.973 10.041 84.7382 9.22076 84.2918C8.4005 83.8454 7.70453 83.2014 7.19583 82.4182C6.68713 81.6351 6.38178 80.7374 6.30739 79.8065C6.23301 78.8756 6.39196 77.9409 6.76984 77.0869L12.8488 63.4092C13.4433 62.0715 14.4137 60.9353 15.6419 60.1387C16.8701 59.3422 18.3033 58.9196 19.7672 58.9224H86.8093C87.8046 58.9205 88.7905 59.1149 89.7106 59.4944C90.6306 59.874 91.4668 60.4313 92.1713 61.1344C92.8757 61.8375 93.4346 62.6726 93.8159 63.592C94.1972 64.5113 94.3935 65.4968 94.3935 66.4921V77.4342C94.3935 79.4457 93.5945 81.3747 92.1722 82.7971C90.7498 84.2194 88.8208 85.0184 86.8093 85.0184H84.0159" stroke="#0079F8" stroke-width="2" stroke-miterlimit="10"/>
<path d="M74.6835 95.2842C80.295 95.2842 84.844 90.7352 84.844 85.1237C84.844 79.5122 80.295 74.9631 74.6835 74.9631C69.072 74.9631 64.5229 79.5122 64.5229 85.1237C64.5229 90.7352 69.072 95.2842 74.6835 95.2842Z" stroke="#0079F8" stroke-width="2" stroke-miterlimit="10" stroke-linecap="round"/>
<path d="M74.2199 88.5684C76.3782 88.5684 78.1278 86.8187 78.1278 84.6605C78.1278 82.5022 76.3782 80.7526 74.2199 80.7526C72.0616 80.7526 70.312 82.5022 70.312 84.6605C70.312 86.8187 72.0616 88.5684 74.2199 88.5684Z" fill="#D1F2FE"/>
<path d="M32.7094 95.2842C38.3209 95.2842 42.8699 90.7352 42.8699 85.1237C42.8699 79.5122 38.3209 74.9631 32.7094 74.9631C27.0979 74.9631 22.5488 79.5122 22.5488 85.1237C22.5488 90.7352 27.0979 95.2842 32.7094 95.2842Z" stroke="#0079F8" stroke-width="2" stroke-miterlimit="10" stroke-linecap="round"/>
<path d="M32.2463 88.5684C34.4045 88.5684 36.1542 86.8187 36.1542 84.6605C36.1542 82.5022 34.4045 80.7526 32.2463 80.7526C30.088 80.7526 28.3384 82.5022 28.3384 84.6605C28.3384 86.8187 30.088 88.5684 32.2463 88.5684Z" fill="#D1F2FE"/>
<path d="M21.4172 71.5C23.5754 71.5 25.3251 69.7504 25.3251 67.5921C25.3251 65.4338 23.5754 63.6842 21.4172 63.6842C19.2589 63.6842 17.5093 65.4338 17.5093 67.5921C17.5093 69.7504 19.2589 71.5 21.4172 71.5Z" fill="#FFBD00"/>
<path d="M55.4009 51.671V84.9605" stroke="#0079F8" stroke-width="2" stroke-miterlimit="10"/>
<path d="M87.229 70.4868H104.525" stroke="#FFBD00" stroke-width="2" stroke-miterlimit="10"/>
<path d="M27.959 23.2447V23.1578C27.959 18.5842 31.0419 14.4736 35.659 14.4736C40.2761 14.4736 43.2142 18.4828 43.2142 22.9986V23.1C43.2142 27.6736 40.1314 31.7118 35.5577 31.7118C30.984 31.7118 27.959 27.7749 27.959 23.2447ZM40.0445 23.2447V23.1578C40.0445 19.7855 38.0182 17.2381 35.5577 17.2381C33.0971 17.2381 31.2156 19.8868 31.2156 23.0276V23.1289C31.2156 26.5013 33.184 29.0486 35.6879 29.0486C38.1919 29.0486 40.0445 26.4723 40.0445 23.2447ZM56.1682 14.9223H59.6563L34.8919 48.6315H31.4182L56.1682 14.9223ZM47.8458 40.4828V40.396C47.8458 35.8223 50.9287 31.7118 55.5024 31.7118C60.0761 31.7118 63.0577 35.7065 63.0577 40.2368V40.3381C63.0577 44.9118 60.0182 49.0223 55.4011 49.0223C50.784 49.0223 47.8458 45.0131 47.8458 40.4828ZM59.8735 40.4828V40.396C59.8735 37.0236 57.905 34.4763 55.4011 34.4763C52.8971 34.4763 51.059 37.125 51.059 40.2657V40.367C51.059 43.7394 53.0419 46.2868 55.5458 46.2868C58.0498 46.2868 59.8735 43.7105 59.8735 40.4828Z" fill="#FFBD00"/>
<path d="M66.749 21.5079C66.749 19.1342 68.1964 17.0355 70.3964 17.0355C72.5964 17.0355 73.9859 19.1053 73.9859 21.4645C73.9859 23.8381 72.5385 25.9368 70.353 25.9368C68.1674 25.9368 66.749 23.8816 66.749 21.5079Z" stroke="#0079F8" stroke-width="2" stroke-miterlimit="10"/>
<path d="M79.7754 34.5343C79.7754 32.1606 81.2228 30.0619 83.4228 30.0619C85.6228 30.0619 87.0122 32.1316 87.0122 34.4908C87.0122 36.8645 85.5649 38.9632 83.3793 38.9632C81.1938 38.9632 79.7754 36.9079 79.7754 34.5343Z" stroke="#0079F8" stroke-width="2" stroke-miterlimit="10"/>
<path d="M71.4821 38.6446L85.1886 18.3815H81.8597L67.8926 38.6446H71.4821Z" fill="#0079F8"/>
</svg>
